<svg id="svg" xmlns="http://www.w3.org/2000/svg" xmlns:xlink="http://www.w3.org/1999/xlink" width="400" height="400" viewBox="0, 0, 400,400"><g id="svgg"><path id="path0" d="M160.479 7.784 L 160.479 11.976 144.910 11.976 L 129.341 11.976 129.341 15.569 L 129.341 19.162 121.557 19.162 L 113.772 19.162 113.772 23.353 L 113.772 27.545 105.988 27.545 C 98.204 27.545,98.204 27.545,98.204 31.004 C 98.204 34.010,97.654 34.567,94.012 35.250 C 90.345 35.938,89.820 36.479,89.820 39.575 L 89.820 43.114 82.036 43.114 L 74.251 43.114 74.251 47.305 C 74.251 51.164,73.966 51.497,70.659 51.497 C 67.465 51.497,67.066 51.896,67.066 55.090 C 67.066 58.397,66.733 58.683,62.874 58.683 C 58.882 58.683,58.683 58.882,58.683 62.874 C 58.683 66.733,58.397 67.066,55.090 67.066 C 51.896 67.066,51.497 67.465,51.497 70.659 C 51.497 73.966,51.164 74.251,47.305 74.251 L 43.114 74.251 43.114 82.036 L 43.114 89.820 38.922 89.820 C 34.930 89.820,34.731 90.020,34.731 94.012 C 34.731 97.871,34.445 98.204,31.138 98.204 L 27.545 98.204 27.545 105.988 L 27.545 113.772 23.353 113.772 L 19.162 113.772 19.162 121.557 L 19.162 129.341 15.569 129.341 L 11.976 129.341 11.976 144.910 L 11.976 160.479 7.784 160.479 L 3.593 160.479 3.593 200.000 L 3.593 239.521 7.784 239.521 L 11.976 239.521 11.976 255.090 L 11.976 270.659 15.569 270.659 L 19.162 270.659 19.162 278.443 L 19.162 286.228 23.353 286.228 L 27.545 286.228 27.545 294.012 L 27.545 301.796 31.138 301.796 C 34.445 301.796,34.731 302.129,34.731 305.988 C 34.731 309.980,34.930 310.180,38.922 310.180 L 43.114 310.180 43.114 317.964 L 43.114 325.749 47.305 325.749 C 51.164 325.749,51.497 326.034,51.497 329.341 C 51.497 332.535,51.896 332.934,55.090 332.934 C 58.397 332.934,58.683 333.267,58.683 337.126 C 58.683 341.118,58.882 341.317,62.874 341.317 C 66.733 341.317,67.066 341.603,67.066 344.910 C 67.066 348.104,67.465 348.503,70.659 348.503 C 73.966 348.503,74.251 348.836,74.251 352.695 L 74.251 356.886 82.036 356.886 L 89.820 356.886 89.820 360.425 C 89.820 363.521,90.345 364.062,94.012 364.750 C 97.654 365.433,98.204 365.990,98.204 368.996 C 98.204 372.455,98.204 372.455,105.988 372.455 L 113.772 372.455 113.772 376.647 L 113.772 380.838 121.557 380.838 L 129.341 380.838 129.341 384.431 L 129.341 388.024 144.910 388.024 L 160.479 388.024 160.479 392.216 L 160.479 396.407 200.000 396.407 L 239.521 396.407 239.521 392.216 L 239.521 388.024 255.090 388.024 L 270.659 388.024 270.659 384.431 L 270.659 380.838 278.443 380.838 L 286.228 380.838 286.228 376.647 L 286.228 372.455 294.012 372.455 C 301.796 372.455,301.796 372.455,301.796 368.996 C 301.796 365.990,302.346 365.433,305.988 364.750 C 309.655 364.062,310.180 363.521,310.180 360.425 L 310.180 356.886 317.964 356.886 L 325.749 356.886 325.749 352.695 C 325.749 348.836,326.034 348.503,329.341 348.503 C 332.535 348.503,332.934 348.104,332.934 344.910 C 332.934 341.603,333.267 341.317,337.126 341.317 C 341.118 341.317,341.317 341.118,341.317 337.126 C 341.317 333.267,341.603 332.934,344.910 332.934 C 348.104 332.934,348.503 332.535,348.503 329.341 C 348.503 326.034,348.836 325.749,352.695 325.749 L 356.886 325.749 356.886 317.964 L 356.886 310.180 361.078 310.180 C 365.070 310.180,365.269 309.980,365.269 305.988 C 365.269 302.129,365.555 301.796,368.862 301.796 L 372.455 301.796 372.455 294.012 L 372.455 286.228 376.647 286.228 L 380.838 286.228 380.838 278.443 L 380.838 270.659 384.431 270.659 L 388.024 270.659 388.024 255.090 L 388.024 239.521 392.216 239.521 L 396.407 239.521 396.407 200.000 L 396.407 160.479 392.216 160.479 L 388.024 160.479 388.024 144.910 L 388.024 129.341 384.431 129.341 L 380.838 129.341 380.838 121.557 L 380.838 113.772 376.647 113.772 L 372.455 113.772 372.455 105.988 L 372.455 98.204 368.862 98.204 C 365.555 98.204,365.269 97.871,365.269 94.012 C 365.269 90.020,365.070 89.820,361.078 89.820 L 356.886 89.820 356.886 82.036 L 356.886 74.251 352.695 74.251 C 348.836 74.251,348.503 73.966,348.503 70.659 C 348.503 67.465,348.104 67.066,344.910 67.066 C 341.603 67.066,341.317 66.733,341.317 62.874 C 341.317 58.882,341.118 58.683,337.126 58.683 C 333.267 58.683,332.934 58.397,332.934 55.090 C 332.934 51.896,332.535 51.497,329.341 51.497 C 326.034 51.497,325.749 51.164,325.749 47.305 L 325.749 43.114 317.964 43.114 L 310.180 43.114 310.180 39.649 C 310.180 36.126,308.453 34.731,304.094 34.731 C 302.340 34.731,301.796 33.881,301.796 31.138 L 301.796 27.545 294.012 27.545 L 286.228 27.545 286.228 23.353 L 286.228 19.162 278.443 19.162 L 270.659 19.162 270.659 15.569 L 270.659 11.976 255.090 11.976 L 239.521 11.976 239.521 7.784 L 239.521 3.593 200.000 3.593 L 160.479 3.593 160.479 7.784 " stroke="none" fill="#000000" fill-rule="evenodd"></path></g></svg>
